<svg id="visual" viewBox="0 0 900 600" width="900" height="600" xmlns="http://www.w3.org/2000/svg" xmlns:xlink="http://www.w3.org/1999/xlink" version="1.1"><rect x="0" y="0" width="900" height="600" fill="#FFFFFF"></rect><path d="M743 600L740.2 590C737.3 580 731.7 560 730.3 540C729 520 732 500 726.7 480C721.3 460 707.7 440 706 420C704.3 400 714.7 380 719.3 360C724 340 723 320 725 300C727 280 732 260 731.5 240C731 220 725 200 722.3 180C719.7 160 720.3 140 724.2 120C728 100 735 80 731.7 60C728.3 40 714.7 20 707.8 10L701 0L900 0L900 10C900 20 900 40 900 60C900 80 900 100 900 120C900 140 900 160 900 180C900 200 900 220 900 240C900 260 900 280 900 300C900 320 900 340 900 360C900 380 900 400 900 420C900 440 900 460 900 480C900 500 900 520 900 540C900 560 900 580 900 590L900 600Z" fill="#3d24c7"></path><path d="M734 600L737.5 590C741 580 748 560 750.8 540C753.7 520 752.3 500 747.7 480C743 460 735 440 730.5 420C726 400 725 380 727.8 360C730.7 340 737.3 320 741.3 300C745.3 280 746.7 260 748.3 240C750 220 752 200 750.2 180C748.3 160 742.7 140 741.5 120C740.3 100 743.7 80 742.2 60C740.7 40 734.3 20 731.2 10L728 0L900 0L900 10C900 20 900 40 900 60C900 80 900 100 900 120C900 140 900 160 900 180C900 200 900 220 900 240C900 260 900 280 900 300C900 320 900 340 900 360C900 380 900 400 900 420C900 440 900 460 900 480C900 500 900 520 900 540C900 560 900 580 900 590L900 600Z" fill="#5f30d1"></path><path d="M800 600L795 590C790 580 780 560 773.7 540C767.3 520 764.7 500 763.2 480C761.7 460 761.3 440 767.3 420C773.3 400 785.7 380 787.3 360C789 340 780 320 779 300C778 280 785 260 786.2 240C787.3 220 782.7 200 777.2 180C771.7 160 765.3 140 763.2 120C761 100 763 80 762.7 60C762.3 40 759.7 20 758.3 10L757 0L900 0L900 10C900 20 900 40 900 60C900 80 900 100 900 120C900 140 900 160 900 180C900 200 900 220 900 240C900 260 900 280 900 300C900 320 900 340 900 360C900 380 900 400 900 420C900 440 900 460 900 480C900 500 900 520 900 540C900 560 900 580 900 590L900 600Z" fill="#7a3ddb"></path><path d="M819 600L819.7 590C820.3 580 821.7 560 818.8 540C816 520 809 500 809.7 480C810.3 460 818.7 440 822.2 420C825.7 400 824.3 380 817.5 360C810.7 340 798.3 320 798.7 300C799 280 812 260 815.7 240C819.3 220 813.7 200 809.2 180C804.7 160 801.3 140 798.5 120C795.7 100 793.3 80 794.5 60C795.7 40 800.3 20 802.7 10L805 0L900 0L900 10C900 20 900 40 900 60C900 80 900 100 900 120C900 140 900 160 900 180C900 200 900 220 900 240C900 260 900 280 900 300C900 320 900 340 900 360C900 380 900 400 900 420C900 440 900 460 900 480C900 500 900 520 900 540C900 560 900 580 900 590L900 600Z" fill="#934be5"></path><path d="M831 600L834.3 590C837.7 580 844.3 560 844.7 540C845 520 839 500 835.5 480C832 460 831 440 831.2 420C831.3 400 832.7 380 834.5 360C836.3 340 838.7 320 836.2 300C833.7 280 826.3 260 823.8 240C821.3 220 823.7 200 828.5 180C833.3 160 840.7 140 842.3 120C844 100 840 80 837.5 60C835 40 834 20 833.5 10L833 0L900 0L900 10C900 20 900 40 900 60C900 80 900 100 900 120C900 140 900 160 900 180C900 200 900 220 900 240C900 260 900 280 900 300C900 320 900 340 900 360C900 380 900 400 900 420C900 440 900 460 900 480C900 500 900 520 900 540C900 560 900 580 900 590L900 600Z" fill="#ab5af0"></path><path d="M875 600L874.7 590C874.3 580 873.7 560 869.2 540C864.7 520 856.3 500 856.2 480C856 460 864 440 867.7 420C871.3 400 870.7 380 870.3 360C870 340 870 320 871.2 300C872.3 280 874.7 260 871 240C867.3 220 857.7 200 857 180C856.3 160 864.7 140 867 120C869.3 100 865.7 80 864.8 60C864 40 866 20 867 10L868 0L900 0L900 10C900 20 900 40 900 60C900 80 900 100 900 120C900 140 900 160 900 180C900 200 900 220 900 240C900 260 900 280 900 300C900 320 900 340 900 360C900 380 900 400 900 420C900 440 900 460 900 480C900 500 900 520 900 540C900 560 900 580 900 590L900 600Z" fill="#c169fa"></path></svg>